<svg width="64" height="64" viewBox="0 0 64 64" fill="none" xmlns="http://www.w3.org/2000/svg">
<g clip-path="url(#clip0_5105_1252)">
<path d="M64 32C64 14.3269 49.6731 0 32 0C14.3269 0 0 14.3269 0 32C0 49.6731 14.3269 64 32 64C49.6731 64 64 49.6731 64 32Z" fill="#1C1E1F"/>
<g clip-path="url(#clip1_5105_1252)">
<path fill-rule="evenodd" clip-rule="evenodd" d="M18.3999 46.9164L22.3804 43.0327C27.1717 47.6492 34.9116 47.6492 39.666 43.0327L43.6465 46.9164C36.7175 53.6945 25.3658 53.6945 18.3999 46.9164ZM40.7349 21.6725C42.2091 23.5411 43.0937 25.9592 43.0937 28.817C43.0937 36.0714 37.3441 40.5047 31.0048 40.5047C24.5918 40.5047 19.0633 36.0714 19.0633 28.927C19.0633 28.2308 19.1002 27.5713 19.2107 26.8752C19.4319 25.5929 19.8373 24.3838 20.427 23.248C21.0167 22.1855 21.7538 21.2329 22.6752 20.4268C23.5598 19.6208 24.5549 18.9613 25.6606 18.4484C26.7663 17.9354 27.9457 17.569 29.162 17.3858C30.6362 17.166 32.2579 17.2393 33.8427 17.2393C34.5061 17.2393 35.0958 17.2759 35.7592 17.166C36.7544 17.0195 37.6021 16.5798 38.3023 15.8837C39.3343 14.8578 39.8503 13.4289 39.8503 12H45.5999C45.5999 16.0669 43.6465 19.6574 40.7349 21.6725ZM36.9018 28.8903C36.9018 25.3364 34.7273 22.5519 31.1522 22.5519C27.5771 22.5519 25.1815 25.3364 25.1815 28.8903C25.1815 32.4442 27.5771 35.2288 31.1522 35.2288C34.7273 35.2288 36.9018 32.4442 36.9018 28.8903Z" fill="white"/>
</g>
</g>
<defs>
<clipPath id="clip0_5105_1252">
<rect width="64" height="64" fill="white"/>
</clipPath>
<clipPath id="clip1_5105_1252">
<rect width="27.2" height="40" fill="white" transform="translate(18.3999 12)"/>
</clipPath>
</defs>
</svg>
